<svg width="266" height="136" fill="none" xmlns="http://www.w3.org/2000/svg"><g clip-path="url(#clip0_252_1154)"><path d="M47.526 109.777H9.148V91l36.55-88.804h21.93V91h9.499v18.777h-9.498v23.842H47.526v-23.842zm0-18.777V39.75h-.364L27.423 91h20.103z" fill="#C60504"/><path d="M47.526 109.777H9.148V91l36.55-88.804h21.93V91h9.499v18.777h-9.498v23.842H47.526v-23.842zm0-18.777V39.75h-.364L27.423 91h20.103z" fill="#000" opacity=".3"/><path d="M38.37 109.777H0V91L36.55 2.196h21.93V91h9.505v18.777h-9.512v23.842H38.37v-23.842zm0-18.777V39.75h-.364L18.275 91.006H38.37V91zm76.548 35.862c-5.242-5.757-7.856-13.89-7.856-24.405V33.364c0-10.515 2.621-18.648 7.856-24.405 5.235-5.758 12.79-8.64 22.659-8.64 9.87 0 17.418 2.882 22.66 8.64 5.234 5.757 7.855 13.89 7.855 24.405v69.093c0 10.515-2.621 18.648-7.855 24.405-5.242 5.758-12.79 8.64-22.66 8.64-9.869-.007-17.424-2.882-22.659-8.64zm33.071-23.092V32.051c0-8.639-3.47-12.955-10.419-12.955-6.941 0-10.412 4.316-10.412 12.955v71.719c0 8.639 3.471 12.955 10.412 12.955 6.949 0 10.419-4.323 10.419-12.955z" fill="#C60504"/><path d="M160.23 8.959C154.995 3.2 147.44.319 137.577.319c-9.869 0-17.424 2.882-22.659 8.64-5.242 5.757-7.856 13.89-7.856 24.405v69.093c0 10.515 2.621 18.648 7.856 24.405 5.235 5.758 12.79 8.64 22.659 8.64 9.87 0 17.418-2.875 22.66-8.64 5.234-5.757 7.855-13.89 7.855-24.405V33.364c0-10.515-2.621-18.648-7.862-24.405zm-12.241 94.811c0 8.639-3.47 12.955-10.419 12.955-6.941 0-10.412-5.422-10.412-12.955V32.051c0-7.833 3.471-12.955 10.412-12.955 6.942 0 10.419 4.316 10.419 12.955v71.719z" fill="#000" opacity=".3"/><path d="M105.763 126.862c-5.242-5.757-7.856-13.89-7.856-24.405V33.364c0-10.515 2.621-18.648 7.856-24.405 5.241-5.758 12.79-8.64 22.659-8.64s17.418 2.882 22.66 8.64c5.234 5.757 7.855 13.89 7.855 24.405v69.093c0 10.515-2.621 18.648-7.855 24.405-5.242 5.758-12.791 8.64-22.66 8.64-9.869-.007-17.418-2.882-22.659-8.64zm33.078-23.092V32.051c0-8.639-3.47-12.955-10.412-12.955-6.941 0-10.412 4.316-10.412 12.955v71.719c0 8.639 3.471 12.955 10.412 12.955 6.934 0 10.412-4.323 10.412-12.955zm97.551 6.007h-38.377V91l36.556-88.804h21.931V91h9.505v18.777h-9.505v23.842h-20.103v-23.842h-.007zm0-18.777V39.75h-.364l-19.739 51.257h20.103V91z" fill="#C60504"/><path d="M236.392 109.777h-38.377V91l36.556-88.804h21.931V91h9.505v18.777h-9.505v23.842h-20.103v-23.842h-.007zm0-18.777V39.75h-.364l-19.739 51.257h20.103V91z" fill="#000" opacity=".3"/><path d="M227.244 109.777h-38.378V91l36.549-88.804h21.931V91h9.506v18.777h-9.506v23.842h-20.102v-23.842zm0-18.777V39.75h-.365l-19.738 51.257h20.103V91z" fill="#C60504"/></g><defs><clipPath id="clip0_252_1154"><path fill="#fff" transform="translate(0 .32)" d="M0 0h266v135.175H0z"/></clipPath></defs></svg>