<svg width="15" height="16" fill="none" xmlns="http://www.w3.org/2000/svg"><path d="M14.59 4.837a.458.458 0 00-.375-.194h-9.78l-.74-2.554C3.405 1.083 2.715.974 2.432.974H.458a.458.458 0 100 .916H2.43c.063 0 .253 0 .383.45l2.547 9.363a.457.457 0 00.44.335h6.222a.457.457 0 00.43-.303l2.193-6.48a.458.458 0 00-.056-.418zm-2.89 6.285H6.15L4.692 5.56h8.873L11.7 11.122zm-.907 1.843a1.152 1.152 0 100 2.305 1.152 1.152 0 000-2.305zm-4.148 0a1.152 1.152 0 100 2.305 1.152 1.152 0 000-2.305z" fill="#fff"/></svg>