<svg xmlns="http://www.w3.org/2000/svg" id="svg82" version="1.1" width="1024" height="507" viewBox="-1.875 -1.875 133.75 66.242"><path id="path30" d="M34.552 11.288C33.222 5.487 29.899.77 29.451 0c-.723 1.082-3.367 5.247-4.726 9.868-1.46 5.15-1.676 9.722-1.17 14.223.506 4.501 2.399 9.123 2.399 9.123 1.011 2.43 2.529 5.029 3.511 6.306 1.445-1.878 4.77-7.485 5.81-14.803.578-4.067.592-7.629-.723-13.43zm-5.101 26.787c-.65-1.227-1.662-3.563-1.763-7.173-.029-3.489 1.373-6.474 1.777-7.1.362.626 1.575 3.225 1.72 6.788.087 3.49-1.07 6.234-1.734 7.485zm4.71-16.944c-.042 2.213-.303 4.548-.65 5.944.13-2.406-.158-5.799-.722-8.448-.55-2.647-2.11-7.075-3.367-9.121-1.156 1.95-2.572 5.777-3.324 9.097-.737 3.323-.766 7.34-.766 8.546-.202-1.016-.693-4.637-.549-8.28.116-3.005.81-6.09 1.2-7.51 1.474-4.74 3.135-7.772 3.439-8.254.318.482 2.413 4.211 3.497 8.135 1.084 3.922 1.3 7.676 1.243 9.891zm-2.47 19.74h5.708v14.775c-3.945 4.21-9.552 6.842-15.78 6.842C9.682 62.488 0 52.81 0 40.871s9.682-21.618 21.619-21.618v16.254a12.097 12.097 0 00-8.584 3.557 12.44 12.44 0 00-1.489 1.807c-3.179 4.72-2.688 11.182 1.489 15.36a12.101 12.101 0 008.584 3.555c3.092 0 6.199-1.176 8.554-3.526.015-.011.03-.02.044-.032v-.003c.014-.009.014-.017.029-.027a6.084 6.084 0 000-8.596 6.083 6.083 0 00-8.599 0c0 .01-.014.02-.028.028v-6.759zm18.482 17.762c0 1.513-.187 3.86-3.222 3.86h-3.584c-3.02 0-3.208-2.347-3.208-3.86V44.737c0-1.514.188-3.861 3.208-3.861h3.584c3.035 0 3.222 2.347 3.222 3.861v3.056h-4.335V44.27c0-.37-.274-.71-.679-.71-.246 0-.68.153-.68.71v14.74c0 .555.434.71.68.71.405 0 .68-.34.68-.71v-4.73h-.651V51.9h4.985zm1.72 3.86l2.254-21.617h6.792l2.255 21.617H58.96l-.405-5.743h-2.038l-.39 5.743zm4.783-8.122h1.734l-.751-10.803h-.246zm8.122 5.405l4.147-16.208h-3.714v-2.692h8.15v2.686l-4.132 16.16h4.393v2.77h-8.844zm10.867 2.717V40.876h6.806c3.02 0 3.208 2.347 3.208 3.861v6.546c0 1.513-.188 3.86-3.208 3.86H80v7.35zM80 52.445h.55c.476 0 .808-.402.808-1.08v-6.728c0-.68-.332-1.08-.809-1.08H80zm18.468 10.048h-4.45l-1.475-7.999h-.318v7.999h-4.32V40.876h6.792c3.034 0 3.208 2.347 3.208 3.861v6.7c0 .586-.03 2.008-1.561 2.625zm-6.243-10.694h.564c.462 0 .795-.402.795-1.08v-6.082c0-.679-.333-1.08-.795-1.08h-.564zm8.57 6.834V44.737c0-1.514.188-3.861 3.222-3.861h3.57c3.034 0 3.222 2.347 3.222 3.861v13.896c0 1.513-.188 3.86-3.222 3.86h-3.57c-3.034 0-3.222-2.347-3.222-3.86zm5.679.377V44.27c0-.37-.275-.71-.68-.71-.245 0-.678.153-.678.71v14.74c0 .556.433.711.679.711.404 0 .679-.34.679-.71zm17.905-18.134H130v21.617h-4.32V48.935h-.16l-2.225 13.558h-3.454l-2.225-13.558h-.16v13.558h-4.32V40.876h5.621l2.804 15.193z" fill="#007ac2" fill-opacity="1"/></svg>