<svg width="13" height="9" fill="none" xmlns="http://www.w3.org/2000/svg"><path opacity=".9" d="M4.224 4.238L.774 7.69l.489.49 3.451-3.451-.49-.49zm4.68.015l-.49.49 3.427 3.427.49-.489-3.427-3.428z" fill="#fff"/><path d="M6.577 6.197c.519 0 1.073-.208 1.454-.623l4.326-4.293-.484-.484-4.327 4.327a1.38 1.38 0 01-1.973 0L1.246.797.76 1.28l4.362 4.327a2.1 2.1 0 001.454.589z" fill="#fff"/><path d="M1.73 9h9.693a1.02 1.02 0 001.038-1.038V1.038A1.02 1.02 0 0011.423 0H1.731A1.02 1.02 0 00.692 1.038v6.924C.692 8.55 1.142 9 1.731 9zM11.424.692c.208 0 .346.139.346.346v6.924c0 .207-.138.346-.346.346H1.731c-.208 0-.347-.139-.347-.346V1.038c0-.207.139-.346.347-.346h9.692z" fill="#fff"/></svg>