<svg width="177" height="16" fill="none" xmlns="http://www.w3.org/2000/svg"><path d="M5.421 15.18c-.76 0-1.52-.027-2.28-.08a15.124 15.124 0 01-2.34-.32V1.34c.64-.12 1.34-.207 2.1-.26.76-.067 1.467-.1 2.12-.1.88 0 1.687.067 2.42.2.747.12 1.387.333 1.92.64.534.307.947.713 1.24 1.22.307.493.46 1.107.46 1.84 0 1.107-.533 1.98-1.6 2.62.88.333 1.48.787 1.8 1.36.32.573.48 1.22.48 1.94 0 1.453-.533 2.547-1.6 3.28-1.053.733-2.626 1.1-4.72 1.1zm-1.58-6.22v3.58c.227.027.474.047.74.06.267.013.56.02.88.02.934 0 1.687-.133 2.26-.4.574-.267.86-.76.86-1.48 0-.64-.24-1.093-.72-1.36-.48-.28-1.166-.42-2.06-.42h-1.96zm0-2.38h1.52c.96 0 1.647-.12 2.06-.36.414-.253.62-.653.62-1.2 0-.56-.213-.953-.64-1.18-.426-.227-1.053-.34-1.88-.34-.266 0-.553.007-.86.02-.306 0-.58.013-.82.04v3.02zM23.323 15c-.146-.48-.313-.973-.5-1.48l-.52-1.52h-5.4a69.732 69.732 0 01-.54 1.52c-.173.507-.333 1-.48 1.48h-3.24c.52-1.493 1.014-2.873 1.48-4.14.467-1.267.92-2.46 1.36-3.58.454-1.12.894-2.18 1.32-3.18.44-1.013.894-2 1.36-2.96h2.98c.454.96.9 1.947 1.34 2.96.44 1 .88 2.06 1.32 3.18.454 1.12.914 2.313 1.38 3.58.467 1.267.96 2.647 1.48 4.14h-3.34zm-3.74-10.72c-.066.2-.166.473-.3.82l-.46 1.2c-.173.453-.366.953-.58 1.5-.2.547-.406 1.12-.62 1.72h3.94c-.213-.6-.42-1.173-.62-1.72-.2-.547-.393-1.047-.58-1.5a746.49 746.49 0 00-.46-1.2c-.133-.347-.24-.62-.32-.82zm15.127-.74c-1.454 0-2.507.407-3.16 1.22-.64.8-.96 1.9-.96 3.3 0 .68.08 1.3.24 1.86.16.547.4 1.02.72 1.42.32.4.72.713 1.2.94.48.213 1.04.32 1.68.32.346 0 .64-.007.88-.02.253-.013.473-.04.66-.08V7.68h3.12v6.86c-.374.147-.974.3-1.8.46-.827.173-1.847.26-3.06.26-1.04 0-1.987-.16-2.84-.48a5.933 5.933 0 01-2.16-1.4c-.6-.613-1.067-1.367-1.4-2.26-.32-.893-.48-1.913-.48-3.06 0-1.16.18-2.187.54-3.08.36-.893.853-1.647 1.48-2.26a6.192 6.192 0 012.2-1.42c.853-.32 1.76-.48 2.72-.48.653 0 1.24.047 1.76.14.533.08.986.18 1.36.3.386.107.7.22.94.34.253.12.433.213.54.28l-.9 2.5a7.612 7.612 0 00-1.48-.58 5.931 5.931 0 00-1.8-.26zm9.903 4.52c0 .68.08 1.293.24 1.84a4.59 4.59 0 00.72 1.42c.32.387.706.687 1.16.9.453.213.973.32 1.56.32.573 0 1.086-.107 1.54-.32a3.101 3.101 0 001.16-.9c.32-.4.56-.873.72-1.42.173-.547.26-1.16.26-1.84 0-.68-.087-1.293-.26-1.84-.16-.56-.4-1.033-.72-1.42a3.02 3.02 0 00-1.16-.92 3.582 3.582 0 00-1.54-.32c-.587 0-1.107.113-1.56.34-.454.213-.84.52-1.16.92-.307.387-.547.86-.72 1.42a6.467 6.467 0 00-.24 1.82zm10.58 0c0 1.187-.18 2.233-.54 3.14-.347.893-.827 1.647-1.44 2.26a6.006 6.006 0 01-2.2 1.36c-.84.307-1.747.46-2.72.46-.947 0-1.84-.153-2.68-.46a6.233 6.233 0 01-2.2-1.36c-.627-.613-1.12-1.367-1.48-2.26-.36-.907-.54-1.953-.54-3.14s.186-2.227.56-3.12c.373-.907.873-1.667 1.5-2.28a6.33 6.33 0 012.2-1.38 7.63 7.63 0 012.64-.46c.946 0 1.84.153 2.68.46.84.307 1.573.767 2.2 1.38.626.613 1.12 1.373 1.48 2.28.36.893.54 1.933.54 3.12zm6.66-7.08c2.08 0 3.674.373 4.78 1.12 1.107.733 1.66 1.88 1.66 3.44 0 .973-.226 1.767-.68 2.38-.44.6-1.08 1.073-1.92 1.42.28.347.574.747.88 1.2.307.44.607.907.9 1.4.307.48.6.987.88 1.52.28.52.54 1.033.78 1.54h-3.5c-.253-.453-.513-.913-.78-1.38-.253-.467-.52-.92-.8-1.36-.266-.44-.533-.853-.8-1.24-.266-.4-.533-.76-.8-1.08h-1.54V15h-3.12V1.34c.68-.133 1.38-.227 2.1-.28.734-.053 1.387-.08 1.96-.08zm.18 2.66c-.226 0-.433.007-.62.02l-.5.04v3.76h.88c1.174 0 2.014-.147 2.52-.44.507-.293.76-.793.76-1.5 0-.68-.26-1.16-.78-1.44-.506-.293-1.26-.44-2.26-.44zm7.61 4.04h5.8v2.7h-5.8v-2.7zm14.607 7.6c-2.253 0-3.973-.627-5.16-1.88-1.173-1.253-1.76-3.033-1.76-5.34 0-1.147.18-2.167.54-3.06.36-.907.853-1.667 1.48-2.28a6.122 6.122 0 012.24-1.42 8.08 8.08 0 012.82-.48c.587 0 1.12.047 1.6.14.48.08.9.18 1.26.3.36.107.66.22.9.34.24.12.413.213.52.28l-.9 2.52a7.494 7.494 0 00-1.5-.58c-.56-.16-1.2-.24-1.92-.24-.48 0-.953.08-1.42.24-.453.16-.86.42-1.22.78-.347.347-.627.8-.84 1.36-.213.56-.32 1.24-.32 2.04 0 .64.067 1.24.2 1.8.147.547.373 1.02.68 1.42.32.4.733.72 1.24.96.507.227 1.12.34 1.84.34.453 0 .86-.027 1.22-.08.36-.053.68-.113.96-.18.28-.08.527-.167.74-.26.213-.093.407-.18.58-.26l.86 2.5c-.44.267-1.06.507-1.86.72-.8.213-1.727.32-2.78.32zm8.761-7.22c0 .68.08 1.293.24 1.84a4.59 4.59 0 00.72 1.42c.32.387.707.687 1.16.9.453.213.973.32 1.56.32a3.58 3.58 0 001.54-.32 3.1 3.1 0 001.16-.9c.32-.4.56-.873.72-1.42.173-.547.26-1.16.26-1.84 0-.68-.087-1.293-.26-1.84-.16-.56-.4-1.033-.72-1.42a3.02 3.02 0 00-1.16-.92 3.58 3.58 0 00-1.54-.32c-.587 0-1.107.113-1.56.34-.453.213-.84.52-1.16.92-.307.387-.547.86-.72 1.42a6.467 6.467 0 00-.24 1.82zm10.58 0c0 1.187-.18 2.233-.54 3.14-.347.893-.827 1.647-1.44 2.26a6.005 6.005 0 01-2.2 1.36c-.84.307-1.747.46-2.72.46-.947 0-1.84-.153-2.68-.46a6.233 6.233 0 01-2.2-1.36c-.627-.613-1.12-1.367-1.48-2.26-.36-.907-.54-1.953-.54-3.14s.187-2.227.56-3.12c.373-.907.873-1.667 1.5-2.28a6.33 6.33 0 012.2-1.38 7.63 7.63 0 012.64-.46c.947 0 1.84.153 2.68.46.84.307 1.573.767 2.2 1.38.627.613 1.12 1.373 1.48 2.28.36.893.54 1.933.54 3.12zm6.281-6.92c.24.44.513.987.82 1.64.32.64.646 1.34.98 2.1.346.747.686 1.513 1.02 2.3l.94 2.22.94-2.22a124.3 124.3 0 011-2.3c.346-.76.673-1.46.98-2.1.32-.653.6-1.2.84-1.64h2.84c.133.92.253 1.953.36 3.1.12 1.133.22 2.32.3 3.56.093 1.227.173 2.46.24 3.7.08 1.24.146 2.407.2 3.5h-3.04c-.04-1.347-.094-2.813-.16-4.4a120.087 120.087 0 00-.3-4.8 1069.904 1069.904 0 01-1.68 3.9c-.28.68-.554 1.333-.82 1.96-.267.613-.494 1.14-.68 1.58h-2.18c-.187-.44-.414-.967-.68-1.58-.267-.627-.547-1.28-.84-1.96-.28-.68-.567-1.36-.86-2.04-.294-.68-.56-1.3-.8-1.86a116.467 116.467 0 00-.3 4.8c-.067 1.587-.12 3.053-.16 4.4h-3.04c.053-1.093.113-2.26.18-3.5l.24-3.7c.093-1.24.193-2.427.3-3.56.12-1.147.246-2.18.38-3.1h2.98zm18.429-.16c2.067 0 3.653.367 4.76 1.1 1.107.72 1.66 1.907 1.66 3.56 0 1.667-.56 2.873-1.68 3.62-1.12.733-2.72 1.1-4.8 1.1h-.98V15h-3.12V1.34c.68-.133 1.4-.227 2.16-.28.76-.053 1.427-.08 2-.08zm.2 2.66c-.227 0-.453.007-.68.02-.213.013-.4.027-.56.04v4h.98c1.08 0 1.893-.147 2.44-.44.547-.293.82-.84.82-1.64 0-.387-.073-.707-.22-.96a1.442 1.442 0 00-.6-.6 2.371 2.371 0 00-.94-.32 7.077 7.077 0 00-1.24-.1zM144.925 15c-.147-.48-.313-.973-.5-1.48l-.52-1.52h-5.4a65.748 65.748 0 01-.54 1.52c-.173.507-.333 1-.48 1.48h-3.24c.52-1.493 1.013-2.873 1.48-4.14.467-1.267.92-2.46 1.36-3.58.453-1.12.893-2.18 1.32-3.18.44-1.013.893-2 1.36-2.96h2.98c.453.96.9 1.947 1.34 2.96.44 1 .88 2.06 1.32 3.18.453 1.12.913 2.313 1.38 3.58.467 1.267.96 2.647 1.48 4.14h-3.34zm-3.74-10.72c-.067.2-.167.473-.3.82l-.46 1.2c-.173.453-.367.953-.58 1.5-.2.547-.407 1.12-.62 1.72h3.94c-.213-.6-.42-1.173-.62-1.72a39.96 39.96 0 00-.58-1.5l-.46-1.2c-.133-.347-.24-.62-.32-.82zM159.359 15a69.609 69.609 0 00-2.9-4.7 47.824 47.824 0 00-3.32-4.38V15h-3.08V1.14h2.54c.44.44.927.98 1.46 1.62.533.64 1.073 1.327 1.62 2.06a52.48 52.48 0 011.66 2.26c.547.773 1.06 1.52 1.54 2.24V1.14h3.1V15h-2.62zm10.897-8.16a75.289 75.289 0 001.6-2.84c.507-.947.974-1.9 1.4-2.86h3.44a88.411 88.411 0 01-2.36 4.34 111.34 111.34 0 01-2.58 4.22V15h-3.12V9.74a122.448 122.448 0 01-2.6-4.24 96.751 96.751 0 01-2.36-4.36h3.62c.427.96.887 1.913 1.38 2.86a61.05 61.05 0 001.58 2.84z" fill="#fff"/></svg>