<svg width="274" height="159" fill="none" xmlns="http://www.w3.org/2000/svg"><path d="M224.441 122.814l-18.443 32.307-36.49.528a2.212 2.212 0 00-2.174 2.092l37.111.105 1.396-.048 46.465.092 9.39-16.218 11.995-17.217c.785-1.129-.024-2.677-1.397-2.673l-46.384.177c-.608 0-1.167.327-1.469.855z" fill="#EBEBEB"/><path d="M273.694 123.001c0 .008-.077.016-.222.024-.173.008-.39.012-.652.024-.612.013-1.449.025-2.507.045-2.218.016-5.362.044-9.23.072-7.824.016-18.571.041-30.441.069h-2.218c-.696-.053-1.328.254-1.69.798-.701 1.262-1.389 2.508-2.065 3.729l-3.916 7.083c-2.5 4.503-4.754 8.559-6.658 11.977-1.896 3.374-3.433 6.12-4.52 8.055l-1.248 2.177c-.136.225-.245.411-.334.56-.076.125-.12.186-.129.181-.008-.004.025-.072.089-.205.081-.157.177-.347.294-.585.286-.54.676-1.282 1.175-2.221 1.055-1.955 2.552-4.721 4.395-8.127 1.876-3.435 4.102-7.506 6.569-12.026l3.892-7.095 2.077-3.761c.431-.685 1.3-1.072 2.073-1.008h2.218c11.87.028 22.617.049 30.441.069 3.868.032 7.008.056 9.23.072 1.058.02 1.899.033 2.507.045.266.008.479.016.652.024.141.012.218.016.218.024z" fill="#E0E0E0"/><path d="M240.995 139.244c-.821.911-.841 2.234-.044 2.955.797.722 2.109.565 2.93-.346.821-.912.842-2.234.045-2.955-.797-.718-2.11-.565-2.931.346z" fill="#fff"/><path d="M6.158 123.421v19.323h-3.22v2.096h3.22v12.932h60.207v-11.767h-4.46v-2.564h4.46v-3.846h1.98v-1.745H65.99v-14.429H6.158z" fill="#F5F5F5"/><path d="M50.379 123.477v34.077h15.987v-11.767h-4.46v-2.346l4.46.08v-3.846l2.02.004-.035-1.987-2.355-.057v-14.214l-15.617.056z" fill="#E0E0E0"/><path d="M51.514 144.561c0 .117-10.896.213-24.331.213-13.44 0-24.331-.096-24.331-.213 0-.117 10.891-.214 24.33-.214 13.436 0 24.332.097 24.332.214zm0-1.962c0 .117-10.896.214-24.331.214-13.44 0-24.331-.097-24.331-.214 0-.117 10.891-.214 24.33-.214 13.436 0 24.332.097 24.332.214zm3.129-5.281c0 .117-10.896.213-24.331.213-13.44 0-24.332-.096-24.332-.213 0-.117 10.892-.214 24.332-.214 13.435 0 24.33.097 24.33.214zm.297 14.391c0 .117-10.895.214-24.33.214-13.44 0-24.332-.097-24.332-.214 0-.117 10.892-.213 24.332-.213 13.439 0 24.33.096 24.33.213z" fill="#E0E0E0"/><path d="M115.621 26.112l-.512 41.285c-.088 7.023 1.216 17.35 12.305 16.984 9.596-1.048 12.143-10.147 12.216-16.698.036-3.108.072-5.7.096-6.019 0 0 10.506-.858 11.391-11.251.427-5.023.471-15.44.399-24.861-.077-10.123-7.913-18.484-17.992-19.218l-1.002-.072c-10.848-.161-17.042 8.978-16.901 19.85z" fill="#FFBE9D"/><path d="M139.716 61.662s-6.573-.093-13.231-4.995c0 0 2.745 7.84 13.178 7.66l.053-2.665z" fill="#EB996E"/><path d="M133.766 29.808c-.206.21-1.405-.754-3.144-.802-1.735-.073-3.035.806-3.22.584-.088-.1.125-.483.692-.883.56-.399 1.502-.77 2.584-.733 1.083.04 1.981.475 2.496.907.523.435.692.834.592.927zm-.367 3.6c-.028.745-.68 1.334-1.457 1.318-.773-.016-1.38-.629-1.352-1.375.028-.745.68-1.334 1.453-1.318.777.016 1.384.633 1.356 1.375zm4.716 8.512c0-.092 1.002-.189 2.629-.277.41-.012.801-.065.889-.339.117-.286-.02-.742-.185-1.23l-.978-3.196c-1.353-4.548-2.298-8.277-2.113-8.33.185-.051 1.429 3.593 2.777 8.14l.926 3.213c.12.476.346 1.02.092 1.617-.133.298-.446.496-.712.548-.266.06-.495.048-.7.044-1.623-.032-2.625-.1-2.625-.19zm-5.096-18.656c-.169.387-1.562.097-3.228.181-1.667.053-3.035.456-3.228.08-.085-.176.173-.531.74-.878.564-.343 1.441-.645 2.439-.69.999-.04 1.896.19 2.48.488.587.303.869.633.797.819zm16.529 3.22c-.181.314-1.537-.037-3.184-.085-1.642-.08-3.006.161-3.183-.17-.077-.156.193-.439.768-.689.568-.25 1.445-.439 2.432-.403.986.04 1.855.303 2.419.597.567.298.829.6.748.75z" fill="#263238"/><path d="M115.901 33.877c-.173-.088-6.984-2.636-7.273 4.491-.29 7.128 6.915 5.95 6.935 5.749.016-.206.338-10.24.338-10.24z" fill="#FFBE9D"/><path d="M113.505 41.325c-.032-.024-.129.08-.342.17a1.226 1.226 0 01-.926-.02c-.741-.307-1.324-1.529-1.308-2.815a4.095 4.095 0 01.419-1.761c.237-.512.591-.863.97-.915a.627.627 0 01.716.37c.089.202.036.343.072.36.021.02.157-.114.113-.412a.81.81 0 00-.261-.46.949.949 0 00-.677-.21c-.551.017-1.066.5-1.34 1.053a4.205 4.205 0 00-.511 1.967c-.012 1.44.668 2.814 1.682 3.153.495.153.918.016 1.143-.141.23-.17.274-.327.25-.339z" fill="#EB996E"/><path d="M136.444 46.855c.076-.181-1.317-.597-2.299-1.907-.491-.645-.772-1.346-.986-1.862-.209-.516-.366-.843-.442-.819-.073.025-.057.371.06.936.121.556.362 1.354.918 2.084a4.26 4.26 0 001.819 1.395c.543.221.91.233.93.173zm28.842-30.638c-.112-.42-.418-.762-.788-.984-.813-.48-1.747-.415-2.653-.431a14.997 14.997 0 01-7.804-2.374 34.995 34.995 0 00-3.631-4.407c-3.143-3.249-5.732-5.458-8.412-6.539C138.536.088 132.744-.48 129.134.471c-3.611.947-6.855 3.882-7.354 7.587-2.024-1.714-5.063-1.702-7.531-.706l-.06-.028c-2.745.98-4.307 3.886-5.116 6.692-.809 2.806-1.155 5.805-2.64 8.32-.31.525-.68 1.158-.407 1.702.21.423.745.596 1.212.528.467-.069.881-.327 1.28-.58l-.918 2.204a6.462 6.462 0 002.987-.201c.583 2.624 1.28 5.62 1.952 7.397 1.147-.004 2.197.081 2.906.718.962.867 1.392 2.495 2.99 1.879.813-.315 1.558-2.024 1.828-2.854a40.628 40.628 0 001.755-17.17 13.098 13.098 0 014.021-2.907l-.125.11c2.902-1.009 6.182-2 8.931-.638 2.134 1.057 3.389 3.278 4.983 5.048 3.023 3.354 7.104 5.176 11.612 5.373.153 2.927-.092 7.063.061 9.99l2.459-4.689.004.025c.201-.343.366-.69.527-1.036l.057-.105v-.012c.257-.557.499-1.113.821-1.665l.028.024c1.582 1.399 3.916-.742 2.669-2.447a4.103 4.103 0 00-.882-.887c.725.681 1.803 1.008 2.753.714.95-.29 1.687-1.254 1.602-2.246-.056-.677-.539-1.282-1.147-1.548a6.516 6.516 0 003.703-.818c.721-.42 1.441-1.105 1.191-2.028z" fill="#263238"/><path d="M125.045 9.251c.02.029-.434.275-1.042.956-.6.677-1.276 1.85-1.594 3.45a13.031 13.031 0 00-.266 2.641c-.004.96.073 1.984.145 3.064.069 1.08.149 2.221.077 3.41a12.164 12.164 0 01-.234 1.799c-.129.592-.286 1.233-.732 1.745-.355.415-.95.6-1.465.492a2.304 2.304 0 01-1.317-.746c-.668-.782-.833-1.77-1.002-2.644l.218.028c-.355.786-.721 1.56-1.264 2.177-.532.62-1.268 1.036-2.021 1.1a2.014 2.014 0 01-1.071-.19c-.326-.16-.563-.43-.728-.717a1.759 1.759 0 01-.221-.923c.016-.31.136-.6.334-.81l.12.105a6.784 6.784 0 01-2.229 1.677 5.882 5.882 0 01-.693.27c-.161.048-.245.068-.249.06-.004-.008.076-.04.233-.1.153-.065.383-.158.668-.303a6.903 6.903 0 002.154-1.701l.108.097c-.35.37-.37 1.02-.068 1.544.153.258.37.5.656.633.286.14.628.193.97.157.688-.069 1.377-.456 1.876-1.048.511-.593.865-1.347 1.215-2.133l.149-.335.069.36c.165.87.342 1.821.954 2.527.301.338.724.588 1.179.665a1.31 1.31 0 001.244-.42c.39-.439.551-1.047.676-1.632.125-.588.197-1.177.233-1.762.073-1.169 0-2.302-.064-3.382-.069-1.08-.137-2.108-.125-3.08.008-.967.121-1.87.298-2.677.346-1.62 1.058-2.81 1.69-3.479.648-.657 1.119-.875 1.119-.875zm32.111 10.114c.004.004-.024.029-.084.073-.069.052-.157.113-.258.19a3.322 3.322 0 01-.439.282c-.181.104-.382.23-.632.334-.966.46-2.511.915-4.443.802-1.916-.108-4.214-.786-6.263-2.318-2.073-1.491-3.892-3.692-5.381-6.212-.757-1.258-1.369-2.548-2.049-3.741-.672-1.193-1.417-2.294-2.319-3.165-.889-.874-1.924-1.52-2.99-1.818-.532-.157-1.067-.193-1.578-.181a5.538 5.538 0 00-1.445.278 5.99 5.99 0 00-2.165 1.306 5.887 5.887 0 00-1.172 1.524c-.471.955-.499 1.568-.535 1.56-.004 0 0-.036.008-.109l.048-.318a5.21 5.21 0 01.395-1.173 5.856 5.856 0 011.163-1.577 6.08 6.08 0 012.202-1.37c.459-.157.958-.27 1.489-.303a5.257 5.257 0 011.642.174c1.107.298 2.178.96 3.091 1.85.926.887 1.691 2.008 2.371 3.21.688 1.2 1.304 2.486 2.053 3.732 1.477 2.5 3.272 4.676 5.305 6.156 2.012 1.516 4.258 2.197 6.142 2.326 1.9.133 3.429-.286 4.391-.713.974-.444 1.437-.827 1.453-.799z" fill="#455A64"/><path d="M158.102 14.798c.008.016-.125.105-.37.258a8.033 8.033 0 01-1.103.56c-.479.21-1.071.408-1.747.573a12.42 12.42 0 01-2.23.298c-.801.02-1.561-.044-2.246-.153-.68-.12-1.288-.282-1.779-.46a8.278 8.278 0 01-1.135-.487c-.257-.137-.394-.222-.386-.234.02-.04.591.254 1.578.56.491.158 1.09.295 1.759.403.672.097 1.42.154 2.205.13a13.213 13.213 0 002.19-.27 11.88 11.88 0 001.731-.517c.958-.37 1.509-.701 1.533-.66z" fill="#455A64"/><path d="M149.614 30.466c-.205.21-1.404-.758-3.143-.803-1.735-.072-3.035.807-3.22.585-.089-.1.125-.484.692-.883.56-.399 1.501-.77 2.584-.734 1.083.04 1.98.476 2.496.907.519.436.692.83.591.928zm-1.774 3.45c-.028.746-.681 1.334-1.457 1.318-.773-.016-1.381-.629-1.353-1.374.028-.742.68-1.335 1.453-1.319.777.017 1.385.63 1.357 1.375z" fill="#263238"/><path d="M212.69 71.922c0-3.02-2.882-3.02-2.882-3.02-1.098-1.443-2.334-.919-2.334-.919l-4.665 3.153c-.684 1.181-5.212 5.648-5.212 5.648-1.236-.92-1.236-2.758-2.713-4.991-1.481-2.233-4.83-1.971-4.83-1.971s2.608 5.91 2.882 9.586c.273 3.677-2.005 13.933-2.005 13.933l13.19 3.712s.833-5.627 2.31-6.079c1.78-.548 2.77-3.177 2.77-3.177 1.924-3.902 5.828-9.57 6.375-12.46.544-2.887-2.886-3.415-2.886-3.415z" fill="#FFBE9D"/><path d="M114.611 65.395c8.401 5.29 16.865 7.277 25.443 3.854l12.888 3.298 12.682 84.855-74.35.645 3.663-19.709 9.217-70.814 10.457-2.129zm38.33 7.148s10.027 4.168 13.85 11.473c3.828 7.304 9.974 27.804 9.974 27.804l11.327-20.834 21.022 5.382s-15.649 43.232-19.577 47.166c-4.303 4.31-16.024 8.656-21.759 5.302-5.74-3.355-6.907-16.081-6.907-16.081l-7.93-60.212z" fill="#455A64"/><path d="M153.629 108.035c-.056 0-.105-3.77-.105-8.418s.049-8.417.105-8.417c.057 0 .105 3.769.105 8.417s-.044 8.418-.105 8.418zm3.926-30.643c.028.012-.173.536-.491 1.391-.314.85-.737 2.036-1.144 3.358a65.403 65.403 0 00-.949 3.419c-.222.882-.351 1.43-.383 1.423-.016-.004 0-.145.04-.395.037-.254.105-.617.198-1.06a38.766 38.766 0 012.101-6.797c.177-.42.326-.758.434-.988.113-.234.182-.355.194-.35z" fill="#263238"/><path d="M102.789 99.303l2.327-31.973s-17.5 1.625-23.293 13.993c-4.882 10.42-18.35 41.773-19.795 46.062-4.23 12.586 2.379 29.888 29.628 28.888l3.107-17.109 8.026-39.861z" fill="#455A64"/><path d="M83.197 142.727c-.008-.004.044-.108.141-.306.109-.214.258-.5.443-.859.402-.761.97-1.83 1.67-3.144.177-.331.362-.677.56-1.04.197-.359.426-.75.8-1.032.375-.282.866-.395 1.345-.387.483.004.97.109 1.449.234a14.98 14.98 0 012.93 1.108c.487.246.966.536 1.405.899l.16.141a.493.493 0 01.138.218c.052.149.076.294.088.44.028.29.028.58.02.866-.044 1.157-.185 2.27-.33 3.342-.149 1.073-.31 2.105-.475 3.088a236.09 236.09 0 01-.941 5.201l-.685 3.495c-.076.399-.14.713-.185.951-.044.218-.064.331-.068.331-.008 0 0-.117.028-.339.028-.222.08-.544.149-.959.149-.851.358-2.044.62-3.508.261-1.479.58-3.241.897-5.204.157-.98.318-2.012.463-3.084.141-1.072.282-2.185.322-3.322a7.292 7.292 0 00-.016-.842 1.65 1.65 0 00-.076-.387.352.352 0 00-.085-.137l-.153-.133a7.758 7.758 0 00-1.364-.875 14.922 14.922 0 00-2.882-1.105c-.475-.125-.946-.23-1.405-.238-.455-.012-.902.093-1.24.343-.342.25-.563.617-.76.967-.198.359-.387.706-.568 1.033a889.824 889.824 0 01-1.727 3.112c-.201.35-.358.633-.479.842-.124.194-.185.295-.189.29z" fill="#263238"/><path d="M70.538 127.538c0-.008.073-.008.205-.008.157.008.355.012.588.024a48.24 48.24 0 012.157.153c.91.085 1.993.214 3.18.464 1.183.246 2.471.629 3.74 1.241 1.26.617 2.378 1.363 3.288 2.173.897.819 1.594 1.693 1.996 2.528.407.83.576 1.572.604 2.084.036.254.008.456.012.593-.004.133-.008.205-.016.205-.024 0-.016-.286-.076-.786-.053-.504-.242-1.225-.657-2.028-.41-.806-1.102-1.652-1.992-2.451-.902-.79-2.008-1.519-3.252-2.128-1.244-.601-2.516-.984-3.687-1.242a30.074 30.074 0 00-3.152-.504c-.905-.104-1.638-.169-2.149-.217l-.584-.061c-.132-.02-.205-.032-.205-.04z" fill="#263238"/><path d="M89.266 125.926c.024.012-.133.492-.434 1.258-.298.766-.745 1.81-1.26 2.951-.5 1.112-.954 2.12-1.313 2.922-.334.75-.543 1.214-.571 1.202-.024-.012.133-.492.435-1.258.297-.766.744-1.81 1.26-2.951.499-1.113.953-2.12 1.312-2.923.334-.749.543-1.213.571-1.201zm9.684-25.168c-.056 0-.104-2.028-.104-4.527 0-2.5.048-4.527.105-4.527.056 0 .104 2.027.104 4.527 0 2.503-.048 4.527-.104 4.527z" fill="#263238"/><path d="M86.29 136.991c-4.604 1.609-7.715 5.793-8.97 10.51-.134.496-.222 1.08.112 1.471.342.403.994.391 1.445.117.45-.27.744-.733 1.026-1.181 2.214-3.556 4.38-6.845 6.388-10.917zm-5.71-9.122c-2.407-1.339-5.176-1.915-7.925-2.081-1.079-.064-2.15.061-3.204.283-1.437.302-3.091 1.028-3.405 2.064 3.304-1.036 8.167-.355 11.552.387 3.413.745 6.186 2.685 8.086 5.74-.813-2.58-2.745-5.079-5.104-6.393z" fill="#000" opacity=".3"/><path d="M96.374 87.144c-.016.004-.072-.178-.16-.504a23.992 23.992 0 00-.415-1.375 22.783 22.783 0 00-1.944-4.301 22.775 22.775 0 00-2.81-3.794c-.41-.447-.752-.798-.998-1.032-.241-.238-.37-.375-.362-.387.008-.012.157.105.418.327.262.218.624.556 1.051.992.853.87 1.936 2.18 2.882 3.789a20.388 20.388 0 011.908 4.362c.173.584.294 1.064.354 1.399.06.334.093.52.076.524z" fill="#263238"/><path d="M102.802 158.035l-19.5-47.122c-.89-2.149.225-3.894 2.49-3.894h3.925c1.602 0 2.693-.883 2.793-2.262l.13-1.733c.104-1.379 1.195-2.262 2.8-2.262h18.645c1.453 0 3.095.726 4.318 1.915l1.514 1.467c1.219 1.186 2.862 1.915 4.315 1.915h23.743c2.266 0 4.806 1.742 5.671 3.895l19.333 48.085h-70.177v-.004z" fill="#C60504"/><path d="M102.802 158.035l-19.5-47.122c-.89-2.149.225-3.894 2.49-3.894h3.925c1.602 0 2.693-.883 2.793-2.262l.13-1.733c.104-1.379 1.195-2.262 2.8-2.262h18.645c1.453 0 3.095.726 4.318 1.915l1.514 1.467c1.219 1.186 2.862 1.915 4.315 1.915h23.743c2.266 0 4.806 1.742 5.671 3.895l19.333 48.085h-70.177v-.004z" fill="#000" opacity=".3"/><path d="M99.578 142.031l-7.354-28.482c-.483-1.874.741-3.757 2.448-3.757h57.65c1.139 0 2.141.867 2.455 2.12l10.707 42.87c.471 1.882-.282 3.011-1.989 2.991l-58.004.016c-1.123-.016-2.109-.867-2.423-2.104l-3.49-13.654z" fill="#E0E0E0"/><path d="M103.562 156.745l-3.131-44.852a2.747 2.747 0 012.741-2.943h59.731v47.795h-59.341z" fill="#EBEBEB"/><path d="M102.895 157.772l7.104-46.239c.326-1.508 1.682-2.584 3.248-2.584h60.423c2.387 0 3.993 2.402 3.051 4.555l-13.049 42.313-60.777 1.955z" fill="#FAFAFA"/><path d="M102.799 158.016l14.655-43.305c.612-1.806 2.242-3.011 4.077-3.011h62.291c2.009 0 3.422 2.06 2.782 4.047l-13.629 42.293-70.176-.024z" fill="#C60504"/><path d="M132.92 150.762s-2.35.109-3.437.182a31.949 31.949 0 01-15.134-2.689c-1.465-.653-3.015-1.576-3.458-3.12-.495-1.73.624-3.532 1.985-4.705 1.364-1.173 3.023-2.007 4.206-3.362 1.183-1.355 1.743-3.548.58-4.914l-.322.238c-.842 2.136-3.188 3.168-5.132 4.394-3.611 2.273-6.36 5.873-7.608 9.957-.684 2.242-.865 4.858.491 6.769.962 1.354 2.54 2.124 4.098 2.705 4.713 1.749 9.748 1.814 14.776 1.822 1.59 0 6.46-.064 6.46-.064 1.533-.42 2.037-1.218 2.958-2.512.845-1.193.66-3.769-.463-4.701z" fill="#000" opacity=".3"/><path d="M132.922 150.762l-16.245-2.447-6.308-3.636c-.833-.48-1.4-1.334-1.449-2.294 0-.016 0-.036-.004-.052-.048-1.198.681-2.29 1.787-2.754 2.001-.842 5.173-1.967 6.525-4.341 1.944-3.411 0-4.116 0-4.116l-13.568 5.43-9.604 6.547-1.932 10.917 13.399 4.382s14.933.842 19.055.379c4.121-.464 4.121-2.387 4.121-2.387.765-.238 2.311-1.6 2.311-2.866 1.992-1.875 1.912-2.762 1.912-2.762z" fill="#FFBE9D"/><path d="M112.142 155.463c.004-.02.245.028.668.129a37.83 37.83 0 001.807.391c1.53.306 3.667.629 6.042.722a39.381 39.381 0 006.081-.25 52.056 52.056 0 001.832-.25c.43-.065.672-.093.676-.077.004.02-.229.081-.656.182-.427.1-1.051.221-1.827.338a33.09 33.09 0 01-6.118.331 33.262 33.262 0 01-6.074-.806 24.447 24.447 0 01-1.795-.48c-.411-.133-.64-.214-.636-.23zm1.484-2.515c.004-.02.246.028.68.129.431.105 1.059.242 1.836.391 1.553.302 3.727.605 6.142.681a41.334 41.334 0 006.174-.282 48.517 48.517 0 001.86-.258c.439-.069.684-.097.688-.077.004.021-.233.085-.668.186-.435.105-1.067.226-1.855.347a34.765 34.765 0 01-6.211.366c-2.435-.076-4.621-.411-6.174-.766a21.107 21.107 0 01-1.824-.479c-.422-.141-.656-.222-.648-.238z" fill="#EB996E"/><path d="M209.448 92.755l-28.867 5.713a3.684 3.684 0 01-4.327-2.903l-7.893-40.019a3.689 3.689 0 012.898-4.334l18.305-3.62 17.058 11.828 5.72 29.006a3.68 3.68 0 01-2.894 4.33z" fill="#EBEBEB"/><path d="M189.571 47.592l2.222 11.264a3.423 3.423 0 004.021 2.7l10.811-2.136-17.054-11.828z" fill="#F5F5F5"/><path d="M192.135 59.812s.394 2.761 3.679 3.043a2.7 2.7 0 00.37.008c1.461-.028 11.081-.21 11.041-.423l-.596-3.027-10.811 2.14c-.004.004-2.721.444-3.683-1.741z" fill="#E0E0E0"/><path d="M209.445 92.756s.053-.016.157-.044c.105-.025.258-.069.455-.15a3.666 3.666 0 002.282-3.902c-.209-1.173-.499-2.52-.797-4.031l-5.007-25.196.036.056-17.062-11.815.077.016c-3.393.673-6.927 1.37-10.562 2.092-1.819.359-3.663.726-5.526 1.093l-1.401.278c-.467.1-.946.16-1.38.326a3.57 3.57 0 00-2.001 1.875 3.529 3.529 0 00-.29 1.915c.101.649.254 1.314.375 1.967l.768 3.902a12838.655 12838.655 0 014.343 22.06c.451 2.298.894 4.539 1.321 6.72.213 1.088.426 2.16.632 3.217.104.528.205 1.052.309 1.572.113.52.174 1.044.367 1.512a3.604 3.604 0 003.538 2.221c.475-.032.958-.157 1.429-.242 1.895-.37 3.715-.73 5.449-1.072l16.451-3.221c1.94-.375 3.445-.665 4.475-.867l1.164-.221.398-.061s-.133.032-.394.089l-1.159.242c-1.027.205-2.532.512-4.468.903-3.884.778-9.499 1.898-16.438 3.285-1.735.347-3.554.706-5.446 1.085-.475.084-.946.213-1.453.25a3.766 3.766 0 01-3.703-2.318c-.21-.5-.27-1.032-.383-1.544-.104-.52-.205-1.045-.31-1.573-.209-1.056-.422-2.128-.636-3.217l-1.328-6.716c-.909-4.596-1.863-9.421-2.849-14.424-.496-2.504-.999-5.047-1.506-7.631-.253-1.29-.511-2.593-.769-3.903-.124-.66-.269-1.302-.378-1.98a3.786 3.786 0 012.423-4.011c.467-.177.95-.233 1.413-.334.467-.093.938-.185 1.401-.278 1.863-.367 3.707-.734 5.526-1.092 3.635-.718 7.168-1.416 10.566-2.089l.04-.008.036.024c6.138 4.262 11.89 8.257 17.05 11.836l.028.02.008.037c2.049 10.477 3.748 19.149 4.935 25.208.29 1.515.567 2.858.773 4.043.165 1.214-.31 2.23-.829 2.854a3.667 3.667 0 01-1.522 1.08 2.602 2.602 0 01-.463.138l-.165.024z" fill="#263238"/><path d="M206.624 59.416c0 .008-.093.033-.274.077l-.793.177c-.712.15-1.706.36-2.922.613-1.244.254-2.713.552-4.339.879-.821.161-1.678.33-2.568.508a3.504 3.504 0 01-2.725-.681 3.49 3.49 0 01-.95-1.11c-.237-.418-.354-.902-.43-1.341-.173-.891-.343-1.75-.5-2.572-.313-1.633-.595-3.109-.837-4.354-.225-1.222-.41-2.222-.547-2.94-.056-.33-.105-.596-.137-.801-.028-.186-.04-.283-.032-.283s.032.093.076.274c.045.202.105.464.177.795.149.713.359 1.709.612 2.926.254 1.246.552 2.718.882 4.346.165.819.334 1.677.511 2.568.08.452.185.883.41 1.282.218.4.524.758.894 1.04a3.327 3.327 0 002.564.645c.889-.173 1.747-.338 2.564-.496 1.63-.314 3.103-.596 4.347-.838l2.934-.544c.33-.057.596-.105.801-.137.185-.029.282-.04.282-.033zm-15.617-1.668c.012.056-3.389.778-7.595 1.608-4.206.83-7.624 1.46-7.636 1.403-.012-.056 3.389-.778 7.596-1.608 4.202-.83 7.623-1.46 7.635-1.403zm8.332 4.192c.012.056-5.007 1.096-11.205 2.322-6.203 1.225-11.238 2.177-11.25 2.116-.012-.056 5.007-1.096 11.209-2.326 6.199-1.221 11.234-2.169 11.246-2.112zm1.107 5.616c.012.056-5.007 1.096-11.206 2.322-6.202 1.225-11.238 2.177-11.25 2.116-.012-.056 5.007-1.096 11.21-2.326 6.198-1.222 11.238-2.169 11.246-2.112zm-21.345 10.062c-.012-.056 5.007-1.096 11.205-2.322 6.203-1.226 11.238-2.177 11.25-2.117.012.057-5.007 1.097-11.21 2.327-6.198 1.221-11.237 2.168-11.245 2.112zm23.563 1.177c.012.057-5.008 1.097-11.206 2.322-6.203 1.226-11.238 2.177-11.25 2.117-.012-.057 5.007-1.097 11.21-2.326 6.198-1.222 11.234-2.17 11.246-2.113zm1.106 5.616c.012.056-5.007 1.097-11.206 2.322-6.202 1.226-11.237 2.177-11.25 2.117-.012-.057 5.008-1.097 11.21-2.326 6.199-1.218 11.234-2.17 11.246-2.113z" fill="#263238"/><path d="M191.808 88.14l-21.184 4.192a1.7 1.7 0 01-1.996-1.338l-1.518-7.696a1.703 1.703 0 011.337-2l21.183-4.192a1.7 1.7 0 011.997 1.339l1.517 7.695a1.696 1.696 0 01-1.336 2z" fill="#C60504"/><path d="M204.906 62.976s2.133-2.705 3.775-1.193 1.168 2.29-.394 4.68c0 0 3.485-.181 2.367 3.403 0 0 3.473-.383 3.139 2.548 0 0 2.62 2.567 1.26 4.224-1.365 1.657-6.311 4.648-7.559 4.132-1.248-.516-1.26-2.285-1.26-2.285s-1.485-.67-1.896-1.456c-.41-.782.294-1.882.294-1.882s-1.252-1.282-1.562-1.64c-.31-.36.169-2.02.169-2.02l2.001-1.944s-2.753 1.198-3.329.742c-.575-.456-1.219-.85-.608-1.685.616-.835 2.798-2.701 2.798-2.701l.805-2.923z" fill="#FFBE9D"/><path d="M206.512 78.695c-.032-.037.338-.428.901-1.097.568-.657 1.369-1.629 2.544-2.334 1.151-.706 2.21-1.274 2.858-1.843.664-.552.926-1.032.974-1.003.032.008-.165.556-.817 1.18-.636.638-1.711 1.255-2.838 1.948-1.135.677-1.928 1.588-2.548 2.213-.607.63-1.042.968-1.074.936zm-1.928-3.029c-.064-.065 1.216-1.451 2.858-3.092.825-.81 1.534-1.596 2.141-2.076.6-.492 1.055-.674 1.071-.633.024.044-.374.286-.918.81-.551.508-1.227 1.314-2.06 2.133-1.643 1.644-3.027 2.922-3.092 2.858zm.655-6.118c-.064-.085.725-.71 1.602-1.548.894-.83 1.328-1.721 1.413-1.69.096.021-.246 1.053-1.18 1.928-.913.867-1.791 1.37-1.835 1.31z" fill="#EB996E"/><path d="M204.907 62.968c.004.004-.008.072-.036.201l-.137.569c-.137.524-.322 1.25-.56 2.173l-.004.02-.016.016c-.402.355-.853.762-1.344 1.222-.475.463-1.047.967-1.485 1.592-.097.157-.169.335-.153.504.016.17.124.33.269.472.141.14.314.27.491.407.145.125.334.12.556.109.869-.101 1.783-.46 2.701-.839l.644-.266-.5.488c-.627.617-1.3 1.27-1.992 1.95l.032-.043c-.253.62-.414 1.402-.104 2.027.346.621.962 1.145 1.577 1.609l.137.1-.108.13c-.435.516-.745 1.33-.173 1.83.507.528 1.199.931 1.887 1.294l-.233.129.004-.04v-.013.005c.04.048-.093-.117.096.14.451-.213.129-.088.23-.12v.004l-.004.076v.162c.004.108.016.217.032.33.032.218.089.431.173.633.085.198.201.383.354.532.153.145.338.278.516.299.406.044.881-.105 1.316-.263.442-.16.877-.366 1.308-.588.813-.423 1.59-.9 2.326-1.411.733-.516 1.445-1.052 2.037-1.673.302-.306.499-.645.527-1.048.036-.395-.06-.798-.213-1.173-.314-.754-.825-1.423-1.369-1.996l-.048-.052.004-.077c.02-.395.036-.798-.117-1.145a1.7 1.7 0 00-.7-.83c-.64-.387-1.441-.456-2.149-.411l-.202.012.049-.198c.052-.217.116-.431.161-.649.012-.218.076-.431.048-.64a1.82 1.82 0 00-.358-1.138c-.491-.624-1.353-.814-2.073-.814h-.234l.125-.19c.415-.632.821-1.233 1.123-1.834.145-.302.258-.604.286-.907a1.52 1.52 0 00-.177-.846 3.787 3.787 0 00-1.095-1.194c-.427-.258-.914-.25-1.304-.133-.793.25-1.292.73-1.622 1.016-.165.15-.282.274-.362.355-.089.085-.129.125-.137.125a.553.553 0 01.1-.145c.073-.089.182-.222.343-.383.157-.161.362-.355.623-.552a3.332 3.332 0 011.007-.545c.406-.133.95-.16 1.425.121l.334.246c.1.093.201.19.302.29.193.21.398.428.547.71.153.274.245.613.213.955-.028.343-.145.674-.294.988-.305.625-.708 1.234-1.115 1.87l-.108-.189c.406-.012.809.044 1.215.173.399.13.801.36 1.083.718.282.359.439.83.427 1.294.028.234-.036.46-.049.697-.044.23-.108.456-.165.686l-.153-.186c.773-.052 1.594.009 2.339.44.362.218.668.564.829.975.181.412.165.863.141 1.294l-.044-.129c.579.605 1.103 1.278 1.449 2.097.165.407.282.858.241 1.326-.02.238-.096.464-.193.681a3.185 3.185 0 01-.419.56c-.623.654-1.34 1.198-2.084 1.722a21.734 21.734 0 01-2.363 1.435c-.439.226-.886.436-1.345.605-.462.161-.933.33-1.481.274-.579-.12-.917-.572-1.123-1.024a2.863 2.863 0 01-.193-.713 3.703 3.703 0 01-.032-.363v-.182l.004-.096.004-.02v-.005c.097-.036-.221.09.229-.125.19.254.057.093.097.141v.045l-.004.048-.02.242-.214-.113c-.716-.383-1.408-.778-1.98-1.37a1.493 1.493 0 01-.338-.545 1.312 1.312 0 01-.028-.645c.088-.415.29-.758.543-1.068l.028.23c-.644-.496-1.263-1.008-1.666-1.73-.189-.374-.225-.798-.185-1.185.04-.39.141-.754.294-1.104l.008-.025.02-.02c.7-.673 1.372-1.326 2.008-1.935l.149.222c-.946.379-1.847.73-2.789.834-.225.017-.519.009-.72-.165-.17-.137-.347-.27-.508-.431-.157-.157-.301-.363-.326-.613-.02-.246.081-.464.19-.641.491-.673 1.054-1.14 1.545-1.609.499-.455.958-.854 1.373-1.2l-.024.035c.269-.919.478-1.644.631-2.164.069-.226.125-.412.174-.557.02-.12.044-.181.048-.177z" fill="#EB996E"/><path d="M177.31 84.374c.213 1.117-.487 1.972-1.823 2.226l-1.007.193.266 1.379-1.155.222-.962-5.007 2.165-.415c1.333-.254 2.303.278 2.516 1.403zm-1.171.226c-.105-.552-.524-.802-1.232-.669l-.942.181.334 1.738.942-.181c.709-.138 1.002-.525.898-1.069zm1.646-2.201l2.27-.436c1.634-.314 2.947.456 3.236 1.972.29 1.516-.64 2.717-2.274 3.031l-2.27.436-.962-5.003zm2.991 3.628c.994-.19 1.529-.911 1.344-1.866-.185-.96-.946-1.427-1.94-1.238l-1.059.201.596 3.105 1.059-.202zm4.238-4.055l.254 1.322 2.314-.443.177.93-2.314.444.35 1.823-1.155.221-.962-5.007 3.775-.725.177.93-2.616.505z" fill="#fff"/><path d="M268.758 158.035c0 .056-60.17.105-134.375.105-74.23 0-134.383-.049-134.383-.105 0-.056 60.154-.105 134.387-.105 74.205 0 134.371.045 134.371.105z" fill="#263238"/></svg>