<svg width="15" height="15" fill="none" xmlns="http://www.w3.org/2000/svg"><path d="M6.56 3.756L4.361 1.218c-.253-.293-.718-.291-1.012.004L1.54 3.033c-.538.54-.692 1.34-.38 1.981a18.985 18.985 0 008.814 8.827c.641.312 1.44.158 1.98-.381l1.824-1.829c.296-.295.297-.763.002-1.016l-2.548-2.188c-.267-.228-.681-.199-.948.07l-.887.887a.3.3 0 01-.36.057 9.462 9.462 0 01-3.483-3.488.301.301 0 01.057-.36l.884-.885c.268-.27.297-.685.065-.952v0z" stroke="#fff" stroke-linecap="round" stroke-linejoin="round"/></svg>