<svg width="14" height="17" fill="none" xmlns="http://www.w3.org/2000/svg"><path d="M4.4 5.36h1.04v8.32H4.4V5.36zm2.08 0h1.04v8.32H6.48V5.36zm2.08 0H9.6v8.32H8.56V5.36zM.24 2.24h13.52v1.04H.24V2.24zm9.36 0H8.56v-.52c0-.312-.208-.52-.52-.52H5.96c-.312 0-.52.208-.52.52v.52H4.4v-.52C4.4.836 5.076.16 5.96.16h2.08c.884 0 1.56.676 1.56 1.56v.52z" fill="#000" fill-opacity=".7"/><path d="M10.12 16.8H3.88c-.832 0-1.56-.676-1.664-1.508L1.28 2.812l1.04-.104.936 12.48c0 .312.312.572.624.572h6.24c.312 0 .572-.26.624-.572l.936-12.48 1.04.104-.936 12.48c-.104.832-.832 1.508-1.664 1.508z" fill="#000" fill-opacity=".7"/></svg>