<svg width="20" height="13" fill="none" xmlns="http://www.w3.org/2000/svg"><path d="M19.552 1.515c.137-.473 0-.82-.645-.82h-2.138c-.543 0-.792.3-.928.63 0 0-1.087 2.77-2.627 4.565-.497.522-.724.687-.995.687-.136 0-.333-.165-.333-.638V1.515c0-.568-.156-.82-.61-.82H7.918a.525.525 0 00-.544.513c0 .537.77.662.849 2.177v3.288c0 .72-.124.852-.397.852-.724 0-2.486-2.78-3.532-5.962-.204-.618-.41-.868-.955-.868H1.202c-.61 0-.733.3-.733.63 0 .594.724 3.527 3.374 7.406 1.766 2.65 4.252 4.086 6.517 4.086 1.358 0 1.525-.319 1.525-.869V9.946c0-.638.13-.766.56-.766.316 0 .86.167 2.127 1.443 1.449 1.513 1.689 2.193 2.503 2.193h2.136c.61 0 .915-.319.74-.949-.192-.626-.884-1.537-1.803-2.616-.498-.615-1.244-1.277-1.471-1.608-.317-.427-.225-.615 0-.994 0 0 2.604-3.831 2.875-5.134z" fill="#fff"/></svg>