<svg width="15" height="15" fill="none" xmlns="http://www.w3.org/2000/svg"><path d="M13.708 3.426C11.492 0 6.967-1.019 3.458 1.111.04 3.241-1.067 7.871 1.149 11.297l.185.278-.74 2.778 2.771-.74.277.185c1.2.648 2.494 1.018 3.787 1.018a7.57 7.57 0 003.97-1.11c3.417-2.223 4.433-6.76 2.31-10.28zm-1.939 7.13c-.37.556-.831.927-1.478 1.02-.369 0-.83.184-2.678-.556-1.57-.741-2.862-1.945-3.786-3.334-.554-.648-.831-1.482-.923-2.315 0-.741.277-1.39.738-1.852.185-.185.37-.278.554-.278h.462c.185 0 .37 0 .462.37.185.463.646 1.575.646 1.667a.282.282 0 010 .37c.093.186 0 .371-.092.464-.092.092-.185.277-.277.37-.185.093-.277.278-.185.463.37.556.831 1.111 1.293 1.574.554.463 1.108.834 1.755 1.112.184.092.37.092.462-.093.092-.185.554-.648.738-.833.185-.186.277-.186.462-.093l1.478.74c.184.093.369.186.461.279.093.277.093.648-.092.926z" fill="#fff"/></svg>